<?xml version="1.0" encoding="utf-8"?>
<!-- Generator: Adobe Illustrator 26.0.2, SVG Export Plug-In . SVG Version: 6.00 Build 0)  -->
<svg version="1.1" id="Слой_1" xmlns="http://www.w3.org/2000/svg" xmlns:xlink="http://www.w3.org/1999/xlink" x="0px" y="0px"
	 viewBox="0 0 1106 1337" style="enable-background:new 0 0 1106 1337;" xml:space="preserve">
<style type="text/css">
	.st0{fill:#002B49;}
	.st1{fill:#00263A;}
</style>
<g>
	<path class="st0" d="M470.32,488.47c-2.42-2.32-3.75-3.75-5.24-4.97c-17.47-14.22-26.23-33-26.85-55.07
		c-0.74-25.58-0.18-51.18-0.18-76.77c8.26-0.37,16.17-6.03,18.54-14.16c17.03-58.5,36.24-116.38,48.74-177.42
		c-3.15,0.52-5.71,0.82-8.23,1.38c-39.39,8.89-78.74,18.07-118.23,26.62c-11.5,2.48-23.36,3.26-35.08,4.62
		c-1.7,0.2-3.53-0.76-5.31-1.17c1.26-1.53,2.23-3.81,3.85-4.45c22.85-9.06,45.84-17.81,68.73-26.81
		c23.34-9.18,46.62-18.53,69.92-27.87c14.49-5.8,26.81-13.93,30.68-30.69c0.88,0.06,1.76,0.12,2.65,0.18
		c0.58,6.1,2.5,12.41,1.53,18.24c-5.55,33.41,8.44,57.63,35.05,75.78c15.75,10.74,32.22,20.41,48.32,30.63
		c9.68,6.14,19.95,10.75,31.52,11.36c7.5,0.4,10.43,3.48,11.4,11.22c5.22,41.58,11.46,83.01,16.65,124.59
		c5.71,45.65,0.42,90.54-10.32,135.09c-3.79,15.77-11.84,28.61-21.91,40.56c-3.63,4.3-3.33,7.16-0.12,11.51
		c73.11,99.44,146.08,198.99,218.97,298.59c2.28,3.09,4.21,6.8,5.07,10.5c1.18,4.98-0.33,9.85-5.76,11.6
		c-5.47,1.77-10.95,1.56-14.88-3.82c-6.5-8.92-13.26-17.66-19.46-26.79c-2.72-4-5.71-5.34-10.52-5.32
		c-46.21,0.21-92.43,0.16-138.65,0.18c-153.23,0.01-306.45,0.07-459.68-0.07c-6.16,0-10.28,1.5-13.73,6.75
		c-5.1,7.74-10.95,15-16.5,22.45c-5.59,7.5-12.73,9.72-18.46,5.79c-5.88-4.03-5.94-11.22-0.06-19.14
		c45.87-61.92,91.73-123.83,137.64-185.73c44.11-59.48,88.38-118.82,132.29-178.45c5.06-6.89,10.56-9.7,18.95-9.11
		C450.64,488.96,459.7,488.47,470.32,488.47 M591.18,269.72c15.71,6.34,33.37,1.55,42.31-11.96c-46.33-13.85-81-44.59-114.7-79.71
		c0.54,2.84,0.45,3.94,0.92,4.67c6.1,9.34,11.41,19.38,18.61,27.82c17.24,20.22,35.38,39.68,53.16,59.43
		c-4.46-2.2-9.68-3.56-13.29-6.74c-11.77-10.42-23.36-21.1-34.22-32.43c-8.05-8.4-14.86-17.99-22.7-27.63
		c-2.57,7.25-5.06,14.09-0.42,19.99c15.16,19.3,30.8,38.22,46.34,57.22c3.81,4.64,8.9,4.6,13.66,1.99
		C585.86,279.64,592.31,277.65,591.18,269.72 M767.12,793.95c-0.39-1.61-0.37-2.17-0.64-2.53c-18.18-24.9-36.3-49.87-54.76-74.56
		c-1.56-2.1-5.47-3.44-8.29-3.44c-135.08-0.12-270.18-0.03-405.26-0.12c-5.45-0.01-8.64,1.92-11.72,6.19
		c-12.18,16.89-24.73,33.5-37.12,50.25c-3.69,4.97-7.3,10.01-12.05,16.51C414.8,788.83,590.63,791.39,767.12,793.95 M669.88,659.55
		c-10.55-14.37-20.38-27.31-29.66-40.64c-3.38-4.88-7.05-6.64-12.97-6.62c-79.34,0.22-158.68,0.83-238-0.3
		c-17.63-0.24-29.16,4.18-37.73,19.41c-5.43,9.67-13,18.11-20.4,28.15H669.88z M615.16,323.45c-1.49-0.19-2.02-0.43-2.44-0.3
		c-53.13,18.16-106.25,36.33-159.35,54.6c-5.95,2.05-8.54,6.57-7.77,12.97c1.79,14.43,3.32,28.89,5.3,43.29
		c1.31,9.46,6.31,12.49,15.89,10.29c9.54-2.2,19.06-4.42,28.56-6.68c38.04-9.11,76.08-18.16,114.06-27.49
		c2.22-0.55,5.47-3.39,5.5-5.21C615.28,377.86,615.16,350.8,615.16,323.45 M484.83,470.71c2.96,4.45,6.44,10.34,10.7,15.65
		c1.38,1.74,4.7,2.65,7.17,2.74c21.05,0.76,42.1,1.35,63.15,1.73c6.61,0.12,11.31,2.58,15.09,8.05
		c6.26,9.06,13.27,17.62,19.55,26.66c3.53,5.1,7.71,6.4,13.18,4.72v-94.26C568.78,448.08,524.64,459.98,484.83,470.71
		 M405.35,559.24H596.3c-6.69-9.13-12.57-17.51-18.88-25.54c-1.25-1.59-4.15-2.66-6.29-2.68c-46.65-0.25-93.32-0.36-139.98-0.35
		c-2.02,0-4.82,0.67-5.94,2.07C418.59,541.12,412.36,549.81,405.35,559.24 M504.72,199.43c-14.03,54-26.45,108.29-51.33,161.1
		c15.77-6.19,29.74-10.9,42.89-17.33c3.99-1.94,8-8.54,8.06-13.06C504.95,286.57,504.72,243,504.72,199.43 M649.84,429.04
		c5.98-44.54-3.75-84.88-23.62-96.01c0,20.8,0.24,41.3-0.07,61.78C625.86,413.25,631.83,422.3,649.84,429.04 M626.78,437.56
		c0,29.41-0.03,57.87,0.1,86.33c0,1.32,1.53,2.65,2.35,3.97c1.07-1.4,2.74-2.63,3.14-4.18c4.48-17.43,8.82-34.91,13.06-52.41
		C649.87,453,645.82,445.39,626.78,437.56 M636.06,286.23c-20.14,6.19-39.29,11.83-58.23,18.13c-3.42,1.14-5.95,5-8.88,7.6
		c0.36,1,0.73,1.98,1.09,2.96c3.91,0.21,8,1.28,11.66,0.45c7.53-1.71,15.58-3.17,22.08-6.99c12.81-7.53,23.1-7.79,31.61,5.77
		c0.68,1.1,2.81,1.28,4.27,1.89c0.43-1.51,1.43-3.15,1.19-4.57C639.49,303.39,637.82,295.34,636.06,286.23 M503.57,128.18
		c-22.79,11.72-44.75,23.02-66.72,34.32c0.25,0.68,0.52,1.35,0.77,2.04c20.46-4.43,40.93-8.75,61.35-13.34
		c5.42-1.22,7.83-5.19,7.04-10.71C505.45,136.63,504.51,132.82,503.57,128.18 M519.43,240.86c-1.35,30.66,21.84,54.47,44.82,47.31
		C549.57,272.66,535.07,257.36,519.43,240.86 M518.37,300.34c7.05-2.08,13.48-3.99,20.99-6.2c-7.45-6.54-13.81-12.12-20.99-18.43
		V300.34z M520.19,333.51c6.11,0.31,12.18,0.04,14.85-6.07c1.15-2.59,0.15-8.7-1.41-9.31c-2.92-1.15-7.5-0.4-10.41,1.26
		C517.66,322.55,518.54,328.02,520.19,333.51 M563.75,313.21c-1.84-1.98-3.47-3.72-5.36-5.76c-5.42,4.15-10.46,8-15.52,11.87
		C549.06,326.94,549.62,326.77,563.75,313.21"/>
	<path class="st1" d="M215.88,1124.05h-28.41v77.69h-21.54v-77.64c-5.16-0.35-9.15-0.62-15.96-1.08c5.44-7.39,10-13.13,14-19.24
		c1.33-2.04,1.68-5.01,1.68-7.56c0.09-47.08,0.11-94.16,0.05-141.24c-0.02-11.79,1.49-23.12,7.36-33.65
		c6.48-11.61,16.88-15.34,29.3-15.09c12.15,0.26,23.07,4.2,27.75,16.06c3.68,9.31,6.62,19.65,6.68,29.55
		c0.53,81.14,0.31,162.29,0.28,243.44c0,2.15-0.36,4.3-0.58,6.76h-20.6V1124.05z M215.03,1103.63c0.22-1.99,0.57-3.59,0.57-5.2
		c0.02-48.95,0.06-97.9-0.06-146.85c-0.02-4.92-0.69-9.97-1.86-14.75c-1.54-6.31-5.02-11.1-12.53-10.97
		c-7.07,0.13-10.64,4.6-11.9,10.66c-1.28,6.17-1.96,12.57-1.98,18.87c-0.16,46.46-0.09,92.93-0.06,139.38
		c0,2.92,0.29,5.82,0.46,8.86H215.03z"/>
	<path class="st1" d="M515.85,1124.1h-28.58v77.85h-21.59v-77.79c-4.79-0.38-8.77-0.69-15.62-1.25c5.27-7.29,9.74-13.04,13.68-19.13
		c1.3-2.02,1.74-4.91,1.75-7.42c0.09-46.27,0.15-92.54,0.02-138.82c-0.03-12.32,1-24.25,6.93-35.43
		c6.42-12.06,16.89-16.13,29.68-15.86c12.86,0.27,23.82,4.76,28.56,17.47c3.23,8.67,6.05,18.13,6.1,27.26
		c0.46,82.29,0.28,164.58,0.27,246.88c0,1.07-0.22,2.15-0.4,3.86h-20.81V1124.1z M515.21,1103.65c0.15-2,0.33-3.33,0.33-4.67
		c0.01-49.26,0.04-98.5-0.11-147.75c-0.01-4.92-0.68-9.99-1.97-14.74c-1.58-5.89-4.9-10.56-12.03-10.64
		c-7.04-0.06-10.93,4.14-12.22,10.24c-1.36,6.43-2.01,13.12-2.03,19.69c-0.17,46.49-0.09,92.97-0.07,139.45
		c0,2.68,0.24,5.37,0.39,8.43H515.21z"/>
	<polygon class="st1" points="335.34,1202.06 314.71,1202.06 314.71,927.72 286.04,927.72 286.04,1201.74 264.94,1201.74 
		264.94,908.51 335.34,908.51 	"/>
	<polygon class="st1" points="385.95,1202.07 364.83,1202.07 364.83,908.51 435.26,908.51 435.26,1201.75 414.32,1201.75 
		414.32,927.73 385.95,927.73 	"/>
	<path class="st1" d="M800.08,1201.81V927.62c-10.91-1.8-10.7-1.78-11.53,8.1c-5.27,62.34-10.57,124.67-16.06,186.99
		c-1.44,16.25-2.9,32.56-5.82,48.58c-1.43,7.89-5.25,15.79-9.68,22.58c-6.55,10.02-15.27,11.7-28.19,6.58
		c5.21-8.52,3.96-19.45,14.26-26.3c4.25-2.83,6.44-10.89,7.01-16.82c3.77-39.68,6.87-79.42,10.14-119.16
		c2.67-32.27,5.34-64.56,7.88-96.84c0.36-4.59,0.05-9.23,0.05-14.34c-5.57-0.26-10.94-0.52-17.39-0.82
		c2.9-5.83,5.09-10.86,7.91-15.52c0.89-1.48,3.44-2.75,5.25-2.77c18.8-0.2,37.62-0.13,57.07-0.13v294.05H800.08z"/>
	<path class="st1" d="M587.02,1202.11h-20.9V904.84c25.2,10.09,45.35,25.54,58.28,49.46c30.37,56.24,18.51,123.28-30.39,169.99
		c-5.38,5.14-7.27,10.1-7.13,17.24C587.29,1161.39,587.02,1181.29,587.02,1202.11 M587.85,942.99v159.16
		C632.05,1061.85,627.53,974.91,587.85,942.99"/>
	<path class="st1" d="M851.77,1201.64V907.61h20.74c0.16,2.86,0.43,5.76,0.44,8.67c0.03,17.45,0.18,34.88-0.08,52.32
		c-0.08,5.38,1.48,9.09,5.48,12.92c31.6,30.31,50.46,66.58,48.09,111.31c-2.54,47.9-22.1,85.75-67.58,106.86
		c-1.5,0.7-3.04,1.35-4.59,1.93C853.8,1201.79,853.21,1201.64,851.77,1201.64 M873.47,1165.22c46.86-42.23,37.55-132.83,0-158.47
		V1165.22z"/>
	<path class="st1" d="M661.89,908.14h49.38v18.97h-27.2v176.64h27.32v18.83h-27.48v60.68h27.49v18.52h-49.5v-78.13
		c-4.77-0.33-8.56-0.59-15.34-1.06c5.2-7.14,9.67-12.77,13.49-18.81c1.41-2.24,1.77-5.45,1.77-8.23
		c0.09-57.04,0.07-114.06,0.07-171.09V908.14z"/>
	<path class="st0" d="M491.43,1231.84l-3.21,2.46c-1.77-2.3-3.89-4.05-6.38-5.24c-2.48-1.19-5.2-1.79-8.18-1.79
		c-3.24,0-6.25,0.78-9.02,2.34c-2.76,1.56-4.9,3.65-6.43,6.28c-1.52,2.63-2.28,5.59-2.28,8.87c0,4.96,1.7,9.09,5.1,12.42
		c3.41,3.31,7.7,4.98,12.88,4.98c5.7,0,10.47-2.23,14.3-6.69l3.21,2.43c-2.03,2.58-4.56,4.58-7.6,5.99
		c-3.03,1.41-6.42,2.12-10.17,2.12c-7.11,0-12.73-2.37-16.84-7.1c-3.45-4.01-5.18-8.84-5.18-14.5c0-5.96,2.08-10.97,6.26-15.03
		c4.18-4.07,9.42-6.1,15.7-6.1c3.8,0,7.23,0.75,10.29,2.25C486.97,1227.02,489.48,1229.13,491.43,1231.84"/>
	<polygon class="st0" points="499.62,1224.29 522.94,1224.29 522.94,1228.28 503.68,1228.28 503.68,1241.02 522.77,1241.02 
		522.77,1245.01 503.68,1245.01 503.68,1260.99 522.77,1260.99 522.77,1264.98 499.62,1264.98 	"/>
	<polygon class="st0" points="525.93,1228.27 525.93,1224.29 548.22,1224.29 548.22,1228.27 539.14,1228.27 539.14,1264.98 
		535,1264.98 535,1228.27 	"/>
	<path class="st0" d="M554.06,1224.29h4.06v17.45h2.94c5.32,0,9.15,0.26,11.48,0.78c2.32,0.52,4.19,1.7,5.61,3.56
		c1.42,1.85,2.14,4.24,2.14,7.18c0,2.87-0.69,5.26-2.08,7.14c-1.38,1.89-3.14,3.13-5.28,3.71c-2.14,0.58-5.72,0.86-10.75,0.86h-8.1
		V1224.29z M558.12,1261.05h4.35c4.57,0,7.56-0.22,8.94-0.65c1.39-0.43,2.5-1.23,3.33-2.42c0.81-1.18,1.22-2.69,1.22-4.53
		c0-2.03-0.52-3.67-1.55-4.95c-1.03-1.27-2.35-2.05-3.94-2.35c-1.6-0.29-4.57-0.42-8.92-0.42h-3.43V1261.05z"/>
	<polygon class="st0" points="608.57,1224.29 613.33,1224.29 623.07,1240.12 632.87,1224.29 637.56,1224.29 625.42,1243.94 
		638.36,1264.98 633.6,1264.98 623.04,1247.81 612.44,1264.98 607.69,1264.98 620.68,1243.98 	"/>
	<path class="st0" d="M664.58,1223.27c6.17,0,11.32,2.05,15.47,6.17c4.16,4.12,6.23,9.18,6.23,15.19c0,5.96-2.07,11.01-6.21,15.16
		c-4.15,4.15-9.2,6.22-15.16,6.22c-6.03,0-11.12-2.06-15.27-6.2c-4.16-4.12-6.23-9.12-6.23-14.98c0-3.92,0.95-7.54,2.83-10.87
		c1.89-3.33,4.47-5.96,7.73-7.85C657.25,1224.21,660.79,1223.27,664.58,1223.27 M664.76,1227.22c-3.01,0-5.86,0.78-8.57,2.35
		c-2.69,1.58-4.8,3.68-6.31,6.35c-1.52,2.66-2.27,5.62-2.27,8.88c0,4.84,1.68,8.92,5.03,12.25c3.36,3.33,7.4,5,12.12,5
		c3.16,0,6.08-0.76,8.77-2.29c2.69-1.54,4.79-3.63,6.29-6.28c1.5-2.66,2.26-5.61,2.26-8.86c0-3.23-0.76-6.15-2.26-8.77
		c-1.5-2.61-3.63-4.69-6.36-6.27C670.73,1228,667.83,1227.22,664.76,1227.22"/>
	<path class="st0" d="M732.34,1231.84l-3.21,2.46c-1.77-2.3-3.89-4.05-6.38-5.24c-2.48-1.19-5.2-1.79-8.18-1.79
		c-3.24,0-6.25,0.78-9.02,2.34c-2.76,1.56-4.9,3.65-6.43,6.28c-1.52,2.63-2.28,5.59-2.28,8.87c0,4.96,1.7,9.09,5.1,12.42
		c3.41,3.31,7.7,4.98,12.88,4.98c5.7,0,10.47-2.23,14.3-6.69l3.21,2.43c-2.03,2.58-4.56,4.58-7.6,5.99
		c-3.03,1.41-6.42,2.12-10.17,2.12c-7.11,0-12.73-2.37-16.84-7.1c-3.45-4.01-5.18-8.84-5.18-14.5c0-5.96,2.08-10.97,6.26-15.03
		c4.18-4.07,9.42-6.1,15.7-6.1c3.8,0,7.23,0.75,10.29,2.25C727.88,1227.02,730.38,1229.13,732.34,1231.84"/>
	<polygon class="st0" points="736.46,1228.27 736.46,1224.29 758.76,1224.29 758.76,1228.27 749.68,1228.27 749.68,1264.98 
		745.53,1264.98 745.53,1228.27 	"/>
	<polygon class="st0" points="764.65,1224.29 787.96,1224.29 787.96,1228.28 768.71,1228.28 768.71,1241.02 787.8,1241.02 
		787.8,1245.01 768.71,1245.01 768.71,1260.99 787.8,1260.99 787.8,1264.98 764.65,1264.98 	"/>
	<polygon class="st0" points="827.93,1264.98 823.5,1264.98 810.02,1233.55 796.31,1264.98 791.89,1264.98 809.59,1224.29 
		810.48,1224.29 	"/>
	<path class="st0" d="M854.14,1223.27c6.17,0,11.32,2.05,15.47,6.17c4.16,4.12,6.23,9.18,6.23,15.19c0,5.96-2.07,11.01-6.21,15.16
		c-4.15,4.15-9.2,6.22-15.16,6.22c-6.03,0-11.12-2.06-15.27-6.2c-4.16-4.12-6.23-9.12-6.23-14.98c0-3.92,0.95-7.54,2.83-10.87
		c1.89-3.33,4.47-5.96,7.73-7.85C846.81,1224.21,850.34,1223.27,854.14,1223.27 M854.32,1227.22c-3.01,0-5.86,0.78-8.57,2.35
		c-2.69,1.58-4.8,3.68-6.31,6.35c-1.52,2.66-2.27,5.62-2.27,8.88c0,4.84,1.68,8.92,5.03,12.25c3.36,3.33,7.4,5,12.12,5
		c3.16,0,6.08-0.76,8.77-2.29c2.69-1.54,4.79-3.63,6.29-6.28c1.5-2.66,2.26-5.61,2.26-8.86c0-3.23-0.76-6.15-2.26-8.77
		c-1.5-2.61-3.63-4.69-6.36-6.27C860.29,1228,857.38,1227.22,854.32,1227.22"/>
	<path class="st0" d="M884.11,1224.28h8.03c3.22,0,5.7,0.39,7.44,1.16c1.74,0.76,3.1,1.94,4.1,3.52c1.01,1.58,1.5,3.35,1.5,5.28
		c0,1.81-0.43,3.45-1.32,4.94c-0.88,1.48-2.18,2.68-3.88,3.61c2.11,0.72,3.75,1.57,4.88,2.53c1.14,0.97,2.03,2.15,2.66,3.51
		c0.63,1.38,0.95,2.86,0.95,4.47c0,3.26-1.19,6.02-3.58,8.28c-2.39,2.26-5.6,3.39-9.62,3.39h-11.18V1224.28z M888.1,1228.27v13.03
		h2.33c2.83,0,4.91-0.26,6.24-0.79c1.33-0.52,2.38-1.36,3.16-2.48c0.78-1.14,1.17-2.4,1.17-3.78c0-1.86-0.65-3.32-1.96-4.39
		c-1.3-1.06-3.38-1.59-6.22-1.59H888.1z M888.1,1245.39v15.6h5.04c2.98,0,5.16-0.29,6.55-0.87c1.38-0.58,2.49-1.49,3.34-2.72
		c0.84-1.24,1.26-2.58,1.26-4.01c0-1.81-0.59-3.39-1.78-4.73c-1.18-1.35-2.8-2.26-4.87-2.77c-1.39-0.33-3.8-0.5-7.23-0.5H888.1z"/>
</g>
</svg>
